<mxfile host="app.diagrams.net" modified="2023-03-04T03:41:50.604Z" agent="5.0 (Macintosh; Intel Mac OS X 10_15_7) AppleWebKit/537.36 (KHTML, like Gecko) Chrome/110.0.0.0 Safari/537.36" etag="Bz0fwlkaGH4JyZx8jIwO" version="21.0.2" type="github">
  <diagram id="OE4C1FlmMiVD_P9bkj5v" name="第 2 页">
    <mxGraphModel dx="1546" dy="835" grid="1" gridSize="10" guides="1" tooltips="1" connect="1" arrows="1" fold="1" page="1" pageScale="1" pageWidth="827" pageHeight="1169" math="0" shadow="0">
      <root>
        <mxCell id="0" />
        <mxCell id="1" parent="0" />
        <mxCell id="DwUHdm88fEw4uy0n-BkT-85" value="" style="group" parent="1" vertex="1" connectable="0">
          <mxGeometry x="500" y="170" width="850" height="820" as="geometry" />
        </mxCell>
        <mxCell id="DwUHdm88fEw4uy0n-BkT-75" value="" style="rounded=0;whiteSpace=wrap;html=1;dashed=1;dashPattern=8 8;fillColor=#f5f5f5;strokeColor=#666666;fontColor=#333333;" parent="DwUHdm88fEw4uy0n-BkT-85" vertex="1">
          <mxGeometry y="356.5" width="760" height="463.5" as="geometry" />
        </mxCell>
        <mxCell id="DwUHdm88fEw4uy0n-BkT-35" value="" style="rounded=1;whiteSpace=wrap;html=1;dashed=1;dashPattern=8 8;fillColor=#dae8fc;gradientColor=#7ea6e0;strokeColor=#6c8ebf;" parent="DwUHdm88fEw4uy0n-BkT-85" vertex="1">
          <mxGeometry x="20" y="400" width="120" height="400" as="geometry" />
        </mxCell>
        <mxCell id="DwUHdm88fEw4uy0n-BkT-13" value="" style="rounded=1;whiteSpace=wrap;html=1;dashed=1;dashPattern=8 8;fillColor=#dae8fc;gradientColor=#7ea6e0;strokeColor=#6c8ebf;" parent="DwUHdm88fEw4uy0n-BkT-85" vertex="1">
          <mxGeometry x="340" y="205" width="240" height="115" as="geometry" />
        </mxCell>
        <mxCell id="DwUHdm88fEw4uy0n-BkT-5" value="" style="rounded=0;whiteSpace=wrap;html=1;dashed=1;dashPattern=8 8;fillColor=#dae8fc;gradientColor=#7ea6e0;strokeColor=#6c8ebf;" parent="DwUHdm88fEw4uy0n-BkT-85" vertex="1">
          <mxGeometry x="290" width="340" height="110" as="geometry" />
        </mxCell>
        <mxCell id="JAS0rcEtX_ssPwYvnTY6-1" value="" style="shape=mxgraph.cisco.routers.router;html=1;dashed=0;strokeWidth=2;verticalLabelPosition=bottom;verticalAlign=top;fontFamily=Helvetica;fontSize=36;fillColor=#dae8fc;gradientColor=#7ea6e0;strokeColor=#6c8ebf;" parent="DwUHdm88fEw4uy0n-BkT-85" vertex="1">
          <mxGeometry x="770" y="40" width="80" height="53" as="geometry" />
        </mxCell>
        <mxCell id="BE5WXdWZNL40ZjaTnKKx-25" value="" style="endArrow=classicThin;html=1;rounded=0;entryX=0.025;entryY=0.358;entryDx=0;entryDy=0;entryPerimeter=0;endFill=1;startArrow=classicThin;startFill=1;" parent="DwUHdm88fEw4uy0n-BkT-85" target="JAS0rcEtX_ssPwYvnTY6-1" edge="1">
          <mxGeometry width="50" height="50" relative="1" as="geometry">
            <mxPoint x="630" y="60" as="sourcePoint" />
            <mxPoint x="410" y="180" as="targetPoint" />
          </mxGeometry>
        </mxCell>
        <mxCell id="DwUHdm88fEw4uy0n-BkT-4" value="DNS 域名解析&lt;br&gt;返回VIP" style="text;html=1;align=center;verticalAlign=middle;resizable=0;points=[];autosize=1;strokeColor=none;fillColor=none;" parent="DwUHdm88fEw4uy0n-BkT-85" vertex="1">
          <mxGeometry x="650" y="25" width="100" height="40" as="geometry" />
        </mxCell>
        <mxCell id="DwUHdm88fEw4uy0n-BkT-7" value="LVS集群&amp;nbsp;" style="text;html=1;strokeColor=none;fillColor=none;align=center;verticalAlign=middle;whiteSpace=wrap;rounded=0;" parent="DwUHdm88fEw4uy0n-BkT-85" vertex="1">
          <mxGeometry x="580" y="247.5" width="130" height="30" as="geometry" />
        </mxCell>
        <mxCell id="DwUHdm88fEw4uy0n-BkT-9" value="" style="verticalAlign=top;verticalLabelPosition=bottom;labelPosition=center;align=center;html=1;outlineConnect=0;fillColor=#dae8fc;strokeColor=#6c8ebf;gradientColor=#7ea6e0;gradientDirection=north;strokeWidth=2;shape=mxgraph.networks.server;" parent="DwUHdm88fEw4uy0n-BkT-85" vertex="1">
          <mxGeometry x="360" y="220" width="50" height="90" as="geometry" />
        </mxCell>
        <mxCell id="iC-HJO6leBHHmo9OM-_P-1" style="edgeStyle=orthogonalEdgeStyle;rounded=0;orthogonalLoop=1;jettySize=auto;html=1;entryX=0.5;entryY=0;entryDx=0;entryDy=0;" parent="DwUHdm88fEw4uy0n-BkT-85" source="DwUHdm88fEw4uy0n-BkT-10" target="DwUHdm88fEw4uy0n-BkT-52" edge="1">
          <mxGeometry relative="1" as="geometry" />
        </mxCell>
        <mxCell id="DwUHdm88fEw4uy0n-BkT-10" value="" style="verticalAlign=top;verticalLabelPosition=bottom;labelPosition=center;align=center;html=1;outlineConnect=0;fillColor=#dae8fc;strokeColor=#6c8ebf;gradientColor=#7ea6e0;gradientDirection=north;strokeWidth=2;shape=mxgraph.networks.server;" parent="DwUHdm88fEw4uy0n-BkT-85" vertex="1">
          <mxGeometry x="435" y="220" width="50" height="90" as="geometry" />
        </mxCell>
        <mxCell id="DwUHdm88fEw4uy0n-BkT-11" value="" style="verticalAlign=top;verticalLabelPosition=bottom;labelPosition=center;align=center;html=1;outlineConnect=0;fillColor=#dae8fc;strokeColor=#6c8ebf;gradientColor=#7ea6e0;gradientDirection=north;strokeWidth=2;shape=mxgraph.networks.server;" parent="DwUHdm88fEw4uy0n-BkT-85" vertex="1">
          <mxGeometry x="500" y="220" width="50" height="90" as="geometry" />
        </mxCell>
        <mxCell id="DwUHdm88fEw4uy0n-BkT-15" value="" style="endArrow=classic;html=1;rounded=0;exitX=0.5;exitY=1;exitDx=0;exitDy=0;entryX=0.5;entryY=0;entryDx=0;entryDy=0;entryPerimeter=0;" parent="DwUHdm88fEw4uy0n-BkT-85" source="DwUHdm88fEw4uy0n-BkT-5" target="DwUHdm88fEw4uy0n-BkT-11" edge="1">
          <mxGeometry width="50" height="50" relative="1" as="geometry">
            <mxPoint x="520" y="200" as="sourcePoint" />
            <mxPoint x="570" y="150" as="targetPoint" />
          </mxGeometry>
        </mxCell>
        <mxCell id="DwUHdm88fEw4uy0n-BkT-16" value="" style="verticalAlign=top;verticalLabelPosition=bottom;labelPosition=center;align=center;html=1;outlineConnect=0;fillColor=#dae8fc;strokeColor=#6c8ebf;gradientColor=#7ea6e0;gradientDirection=north;strokeWidth=2;shape=mxgraph.networks.load_balancer;dashed=1;dashPattern=8 8;" parent="DwUHdm88fEw4uy0n-BkT-85" vertex="1">
          <mxGeometry x="30" y="413.25" width="100" height="30" as="geometry" />
        </mxCell>
        <mxCell id="DwUHdm88fEw4uy0n-BkT-33" value="" style="verticalAlign=top;verticalLabelPosition=bottom;labelPosition=center;align=center;html=1;outlineConnect=0;fillColor=#dae8fc;strokeColor=#6c8ebf;gradientColor=#7ea6e0;gradientDirection=north;strokeWidth=2;shape=mxgraph.networks.load_balancer;dashed=1;dashPattern=8 8;" parent="DwUHdm88fEw4uy0n-BkT-85" vertex="1">
          <mxGeometry x="30" y="529.5" width="100" height="30" as="geometry" />
        </mxCell>
        <mxCell id="DwUHdm88fEw4uy0n-BkT-34" value="" style="verticalAlign=top;verticalLabelPosition=bottom;labelPosition=center;align=center;html=1;outlineConnect=0;fillColor=#dae8fc;strokeColor=#6c8ebf;gradientColor=#7ea6e0;gradientDirection=north;strokeWidth=2;shape=mxgraph.networks.load_balancer;dashed=1;dashPattern=8 8;" parent="DwUHdm88fEw4uy0n-BkT-85" vertex="1">
          <mxGeometry x="30" y="650" width="100" height="30" as="geometry" />
        </mxCell>
        <mxCell id="DwUHdm88fEw4uy0n-BkT-36" style="edgeStyle=none;rounded=0;orthogonalLoop=1;jettySize=auto;html=1;startArrow=classicThin;startFill=1;endArrow=classicThin;endFill=1;" parent="DwUHdm88fEw4uy0n-BkT-85" edge="1">
          <mxGeometry relative="1" as="geometry">
            <mxPoint x="329" y="430" as="sourcePoint" />
            <mxPoint x="140" y="430" as="targetPoint" />
          </mxGeometry>
        </mxCell>
        <mxCell id="DwUHdm88fEw4uy0n-BkT-37" value="" style="verticalAlign=top;verticalLabelPosition=bottom;labelPosition=center;align=center;html=1;outlineConnect=0;fillColor=#dae8fc;strokeColor=#6c8ebf;gradientColor=#7ea6e0;gradientDirection=north;strokeWidth=2;shape=mxgraph.networks.load_balancer;dashed=1;dashPattern=8 8;" parent="DwUHdm88fEw4uy0n-BkT-85" vertex="1">
          <mxGeometry x="30" y="470" width="100" height="30" as="geometry" />
        </mxCell>
        <mxCell id="DwUHdm88fEw4uy0n-BkT-38" value="" style="verticalAlign=top;verticalLabelPosition=bottom;labelPosition=center;align=center;html=1;outlineConnect=0;fillColor=#dae8fc;strokeColor=#6c8ebf;gradientColor=#7ea6e0;gradientDirection=north;strokeWidth=2;shape=mxgraph.networks.load_balancer;dashed=1;dashPattern=8 8;" parent="DwUHdm88fEw4uy0n-BkT-85" vertex="1">
          <mxGeometry x="30" y="590" width="100" height="30" as="geometry" />
        </mxCell>
        <mxCell id="DwUHdm88fEw4uy0n-BkT-39" value="VIP Server" style="text;html=1;strokeColor=none;fillColor=none;align=center;verticalAlign=middle;whiteSpace=wrap;rounded=0;" parent="DwUHdm88fEw4uy0n-BkT-85" vertex="1">
          <mxGeometry x="20" y="370" width="130" height="30" as="geometry" />
        </mxCell>
        <mxCell id="DwUHdm88fEw4uy0n-BkT-40" value="根据VIP key返回可用ip列表" style="text;html=1;strokeColor=none;fillColor=none;align=center;verticalAlign=middle;whiteSpace=wrap;rounded=0;" parent="DwUHdm88fEw4uy0n-BkT-85" vertex="1">
          <mxGeometry x="160" y="400" width="150" height="30" as="geometry" />
        </mxCell>
        <mxCell id="DwUHdm88fEw4uy0n-BkT-68" style="edgeStyle=none;rounded=0;orthogonalLoop=1;jettySize=auto;html=1;startArrow=none;startFill=0;endArrow=classicThin;endFill=1;" parent="DwUHdm88fEw4uy0n-BkT-85" edge="1">
          <mxGeometry relative="1" as="geometry">
            <mxPoint x="470" y="470" as="sourcePoint" />
            <mxPoint x="470" y="540" as="targetPoint" />
          </mxGeometry>
        </mxCell>
        <mxCell id="DwUHdm88fEw4uy0n-BkT-52" value="" style="rounded=1;whiteSpace=wrap;html=1;dashed=1;dashPattern=8 8;fillColor=#dae8fc;strokeColor=#6c8ebf;gradientColor=#7ea6e0;" parent="DwUHdm88fEw4uy0n-BkT-85" vertex="1">
          <mxGeometry x="330" y="386.5" width="260" height="90" as="geometry" />
        </mxCell>
        <mxCell id="BE5WXdWZNL40ZjaTnKKx-21" value="" style="verticalAlign=top;verticalLabelPosition=bottom;labelPosition=center;align=center;html=1;outlineConnect=0;fillColor=#dae8fc;strokeColor=#6c8ebf;gradientColor=#7ea6e0;gradientDirection=north;strokeWidth=2;shape=mxgraph.networks.web_server;" parent="DwUHdm88fEw4uy0n-BkT-85" vertex="1">
          <mxGeometry x="350" y="399" width="50" height="77.5" as="geometry" />
        </mxCell>
        <mxCell id="DwUHdm88fEw4uy0n-BkT-41" value="" style="verticalAlign=top;verticalLabelPosition=bottom;labelPosition=center;align=center;html=1;outlineConnect=0;fillColor=#dae8fc;strokeColor=#6c8ebf;gradientColor=#7ea6e0;gradientDirection=north;strokeWidth=2;shape=mxgraph.networks.web_server;" parent="DwUHdm88fEw4uy0n-BkT-85" vertex="1">
          <mxGeometry x="415" y="400" width="50" height="77.5" as="geometry" />
        </mxCell>
        <mxCell id="DwUHdm88fEw4uy0n-BkT-42" value="" style="verticalAlign=top;verticalLabelPosition=bottom;labelPosition=center;align=center;html=1;outlineConnect=0;fillColor=#dae8fc;strokeColor=#6c8ebf;gradientColor=#7ea6e0;gradientDirection=north;strokeWidth=2;shape=mxgraph.networks.web_server;" parent="DwUHdm88fEw4uy0n-BkT-85" vertex="1">
          <mxGeometry x="480" y="399" width="50" height="77.5" as="geometry" />
        </mxCell>
        <mxCell id="DwUHdm88fEw4uy0n-BkT-54" style="edgeStyle=none;rounded=0;orthogonalLoop=1;jettySize=auto;html=1;exitX=0.75;exitY=0;exitDx=0;exitDy=0;startArrow=classicThin;startFill=1;endArrow=classicThin;endFill=1;" parent="DwUHdm88fEw4uy0n-BkT-85" source="DwUHdm88fEw4uy0n-BkT-52" target="DwUHdm88fEw4uy0n-BkT-52" edge="1">
          <mxGeometry relative="1" as="geometry" />
        </mxCell>
        <mxCell id="DwUHdm88fEw4uy0n-BkT-57" value="" style="verticalAlign=top;verticalLabelPosition=bottom;labelPosition=center;align=center;html=1;outlineConnect=0;fillColor=#dae8fc;strokeColor=#6c8ebf;gradientColor=#7ea6e0;gradientDirection=north;strokeWidth=2;shape=mxgraph.networks.web_server;" parent="DwUHdm88fEw4uy0n-BkT-85" vertex="1">
          <mxGeometry x="544" y="399" width="50" height="77.5" as="geometry" />
        </mxCell>
        <mxCell id="DwUHdm88fEw4uy0n-BkT-82" style="edgeStyle=none;rounded=0;orthogonalLoop=1;jettySize=auto;html=1;startArrow=classic;startFill=1;endArrow=classicThin;endFill=1;" parent="DwUHdm88fEw4uy0n-BkT-85" edge="1">
          <mxGeometry relative="1" as="geometry">
            <mxPoint x="330" y="760" as="sourcePoint" />
            <mxPoint x="141" y="760" as="targetPoint" />
          </mxGeometry>
        </mxCell>
        <mxCell id="DwUHdm88fEw4uy0n-BkT-69" value="" style="verticalAlign=top;verticalLabelPosition=bottom;labelPosition=center;align=center;html=1;outlineConnect=0;fillColor=#dae8fc;strokeColor=#6c8ebf;gradientColor=#7ea6e0;gradientDirection=north;strokeWidth=2;shape=mxgraph.networks.load_balancer;dashed=1;dashPattern=8 8;" parent="DwUHdm88fEw4uy0n-BkT-85" vertex="1">
          <mxGeometry x="30" y="760" width="100" height="30" as="geometry" />
        </mxCell>
        <mxCell id="DwUHdm88fEw4uy0n-BkT-70" value="" style="verticalAlign=top;verticalLabelPosition=bottom;labelPosition=center;align=center;html=1;outlineConnect=0;fillColor=#dae8fc;strokeColor=#6c8ebf;gradientColor=#7ea6e0;gradientDirection=north;strokeWidth=2;shape=mxgraph.networks.load_balancer;dashed=1;dashPattern=8 8;" parent="DwUHdm88fEw4uy0n-BkT-85" vertex="1">
          <mxGeometry x="30" y="710" width="100" height="30" as="geometry" />
        </mxCell>
        <mxCell id="DwUHdm88fEw4uy0n-BkT-71" value="FrontDoor集群" style="text;html=1;strokeColor=none;fillColor=none;align=center;verticalAlign=middle;whiteSpace=wrap;rounded=0;" parent="DwUHdm88fEw4uy0n-BkT-85" vertex="1">
          <mxGeometry x="580" y="415" width="130" height="30" as="geometry" />
        </mxCell>
        <mxCell id="DwUHdm88fEw4uy0n-BkT-72" value="引擎集群" style="text;html=1;strokeColor=none;fillColor=none;align=center;verticalAlign=middle;whiteSpace=wrap;rounded=0;" parent="DwUHdm88fEw4uy0n-BkT-85" vertex="1">
          <mxGeometry x="570" y="740" width="130" height="30" as="geometry" />
        </mxCell>
        <mxCell id="DwUHdm88fEw4uy0n-BkT-76" style="edgeStyle=none;rounded=0;orthogonalLoop=1;jettySize=auto;html=1;exitX=0;exitY=1;exitDx=0;exitDy=0;startArrow=none;startFill=0;endArrow=classicThin;endFill=1;" parent="DwUHdm88fEw4uy0n-BkT-85" source="DwUHdm88fEw4uy0n-BkT-75" target="DwUHdm88fEw4uy0n-BkT-75" edge="1">
          <mxGeometry relative="1" as="geometry" />
        </mxCell>
        <mxCell id="DwUHdm88fEw4uy0n-BkT-12" style="edgeStyle=none;rounded=0;orthogonalLoop=1;jettySize=auto;html=1;exitX=0.5;exitY=1;exitDx=0;exitDy=0;startArrow=none;startFill=0;endArrow=classicThin;endFill=1;entryX=0.5;entryY=0;entryDx=0;entryDy=0;entryPerimeter=0;" parent="DwUHdm88fEw4uy0n-BkT-85" source="DwUHdm88fEw4uy0n-BkT-5" target="DwUHdm88fEw4uy0n-BkT-9" edge="1">
          <mxGeometry relative="1" as="geometry">
            <mxPoint x="400" y="200" as="targetPoint" />
          </mxGeometry>
        </mxCell>
        <mxCell id="DwUHdm88fEw4uy0n-BkT-77" style="edgeStyle=none;rounded=0;orthogonalLoop=1;jettySize=auto;html=1;exitX=0.5;exitY=1;exitDx=0;exitDy=0;startArrow=none;startFill=0;endArrow=classicThin;endFill=1;" parent="DwUHdm88fEw4uy0n-BkT-85" source="DwUHdm88fEw4uy0n-BkT-75" target="DwUHdm88fEw4uy0n-BkT-75" edge="1">
          <mxGeometry relative="1" as="geometry" />
        </mxCell>
        <mxCell id="DwUHdm88fEw4uy0n-BkT-6" style="edgeStyle=none;rounded=0;orthogonalLoop=1;jettySize=auto;html=1;exitX=0.5;exitY=1;exitDx=0;exitDy=0;entryX=0.5;entryY=0;entryDx=0;entryDy=0;entryPerimeter=0;startArrow=none;startFill=0;endArrow=classicThin;endFill=1;" parent="DwUHdm88fEw4uy0n-BkT-85" source="DwUHdm88fEw4uy0n-BkT-5" target="DwUHdm88fEw4uy0n-BkT-10" edge="1">
          <mxGeometry relative="1" as="geometry">
            <mxPoint x="460" y="190" as="targetPoint" />
          </mxGeometry>
        </mxCell>
        <mxCell id="DwUHdm88fEw4uy0n-BkT-78" style="edgeStyle=none;rounded=0;orthogonalLoop=1;jettySize=auto;html=1;exitX=1;exitY=1;exitDx=0;exitDy=0;startArrow=none;startFill=0;endArrow=classicThin;endFill=1;" parent="DwUHdm88fEw4uy0n-BkT-85" source="DwUHdm88fEw4uy0n-BkT-75" target="DwUHdm88fEw4uy0n-BkT-75" edge="1">
          <mxGeometry relative="1" as="geometry" />
        </mxCell>
        <mxCell id="DwUHdm88fEw4uy0n-BkT-83" value="根据VIP key返回可用ip列表" style="text;html=1;strokeColor=none;fillColor=none;align=center;verticalAlign=middle;whiteSpace=wrap;rounded=0;" parent="DwUHdm88fEw4uy0n-BkT-85" vertex="1">
          <mxGeometry x="160" y="730" width="150" height="30" as="geometry" />
        </mxCell>
        <mxCell id="DwUHdm88fEw4uy0n-BkT-84" value="&lt;font style=&quot;font-size: 20px;&quot;&gt;内网集群&lt;/font&gt;" style="text;html=1;strokeColor=none;fillColor=none;align=center;verticalAlign=middle;whiteSpace=wrap;rounded=0;" parent="DwUHdm88fEw4uy0n-BkT-85" vertex="1">
          <mxGeometry x="630" y="360" width="150" height="80" as="geometry" />
        </mxCell>
        <mxCell id="BE5WXdWZNL40ZjaTnKKx-14" value="" style="verticalAlign=top;verticalLabelPosition=bottom;labelPosition=center;align=center;html=1;outlineConnect=0;fillColor=#dae8fc;strokeColor=#6c8ebf;gradientColor=#7ea6e0;gradientDirection=north;strokeWidth=2;shape=mxgraph.networks.pc;movable=1;resizable=1;rotatable=1;deletable=1;editable=1;locked=0;connectable=1;" parent="DwUHdm88fEw4uy0n-BkT-85" vertex="1">
          <mxGeometry x="390" y="20" width="90" height="80" as="geometry" />
        </mxCell>
        <mxCell id="BE5WXdWZNL40ZjaTnKKx-15" value="" style="verticalAlign=top;verticalLabelPosition=bottom;labelPosition=center;align=center;html=1;outlineConnect=0;fillColor=#dae8fc;strokeColor=#6c8ebf;gradientColor=#7ea6e0;gradientDirection=north;strokeWidth=2;shape=mxgraph.networks.mobile;movable=1;resizable=1;rotatable=1;deletable=1;editable=1;locked=0;connectable=1;" parent="DwUHdm88fEw4uy0n-BkT-85" vertex="1">
          <mxGeometry x="310" y="20" width="48" height="80" as="geometry" />
        </mxCell>
        <mxCell id="BE5WXdWZNL40ZjaTnKKx-17" value="" style="verticalAlign=top;verticalLabelPosition=bottom;labelPosition=center;align=center;html=1;outlineConnect=0;fillColor=#dae8fc;strokeColor=#6c8ebf;gradientColor=#7ea6e0;gradientDirection=north;strokeWidth=2;shape=mxgraph.networks.tablet;movable=1;resizable=1;rotatable=1;deletable=1;editable=1;locked=0;connectable=1;" parent="DwUHdm88fEw4uy0n-BkT-85" vertex="1">
          <mxGeometry x="510" y="25" width="100" height="70" as="geometry" />
        </mxCell>
        <mxCell id="-JDEevKfmv0RGfHEk7cI-2" value="" style="group" vertex="1" connectable="0" parent="DwUHdm88fEw4uy0n-BkT-85">
          <mxGeometry x="330" y="543.25" width="267" height="90" as="geometry" />
        </mxCell>
        <mxCell id="-JDEevKfmv0RGfHEk7cI-3" value="" style="rounded=1;whiteSpace=wrap;html=1;dashed=1;dashPattern=8 8;fillColor=#dae8fc;gradientColor=#7ea6e0;strokeColor=#6c8ebf;" vertex="1" parent="-JDEevKfmv0RGfHEk7cI-2">
          <mxGeometry width="260" height="90" as="geometry" />
        </mxCell>
        <mxCell id="-JDEevKfmv0RGfHEk7cI-4" value="" style="verticalAlign=top;verticalLabelPosition=bottom;labelPosition=center;align=center;html=1;outlineConnect=0;fillColor=#dae8fc;strokeColor=#6c8ebf;gradientColor=#7ea6e0;gradientDirection=north;strokeWidth=2;shape=mxgraph.networks.web_server;" vertex="1" parent="-JDEevKfmv0RGfHEk7cI-2">
          <mxGeometry x="23" y="10" width="50" height="77.5" as="geometry" />
        </mxCell>
        <mxCell id="-JDEevKfmv0RGfHEk7cI-5" value="" style="verticalAlign=top;verticalLabelPosition=bottom;labelPosition=center;align=center;html=1;outlineConnect=0;fillColor=#dae8fc;strokeColor=#6c8ebf;gradientColor=#7ea6e0;gradientDirection=north;strokeWidth=2;shape=mxgraph.networks.web_server;" vertex="1" parent="-JDEevKfmv0RGfHEk7cI-2">
          <mxGeometry x="88" y="10" width="50" height="77.5" as="geometry" />
        </mxCell>
        <mxCell id="-JDEevKfmv0RGfHEk7cI-6" value="" style="verticalAlign=top;verticalLabelPosition=bottom;labelPosition=center;align=center;html=1;outlineConnect=0;fillColor=#dae8fc;strokeColor=#6c8ebf;gradientColor=#7ea6e0;gradientDirection=north;strokeWidth=2;shape=mxgraph.networks.web_server;" vertex="1" parent="-JDEevKfmv0RGfHEk7cI-2">
          <mxGeometry x="153" y="10" width="50" height="77.5" as="geometry" />
        </mxCell>
        <mxCell id="-JDEevKfmv0RGfHEk7cI-7" value="" style="verticalAlign=top;verticalLabelPosition=bottom;labelPosition=center;align=center;html=1;outlineConnect=0;fillColor=#dae8fc;strokeColor=#6c8ebf;gradientColor=#7ea6e0;gradientDirection=north;strokeWidth=2;shape=mxgraph.networks.web_server;" vertex="1" parent="-JDEevKfmv0RGfHEk7cI-2">
          <mxGeometry x="217" y="10" width="50" height="77.5" as="geometry" />
        </mxCell>
        <mxCell id="-JDEevKfmv0RGfHEk7cI-1" value="" style="group" vertex="1" connectable="0" parent="DwUHdm88fEw4uy0n-BkT-85">
          <mxGeometry x="330" y="710" width="267" height="90" as="geometry" />
        </mxCell>
        <mxCell id="DwUHdm88fEw4uy0n-BkT-67" value="" style="rounded=1;whiteSpace=wrap;html=1;dashed=1;dashPattern=8 8;fillColor=#dae8fc;gradientColor=#7ea6e0;strokeColor=#6c8ebf;" parent="-JDEevKfmv0RGfHEk7cI-1" vertex="1">
          <mxGeometry width="260" height="90" as="geometry" />
        </mxCell>
        <mxCell id="DwUHdm88fEw4uy0n-BkT-63" value="" style="verticalAlign=top;verticalLabelPosition=bottom;labelPosition=center;align=center;html=1;outlineConnect=0;fillColor=#dae8fc;strokeColor=#6c8ebf;gradientColor=#7ea6e0;gradientDirection=north;strokeWidth=2;shape=mxgraph.networks.web_server;" parent="-JDEevKfmv0RGfHEk7cI-1" vertex="1">
          <mxGeometry x="23" y="10" width="50" height="77.5" as="geometry" />
        </mxCell>
        <mxCell id="DwUHdm88fEw4uy0n-BkT-64" value="" style="verticalAlign=top;verticalLabelPosition=bottom;labelPosition=center;align=center;html=1;outlineConnect=0;fillColor=#dae8fc;strokeColor=#6c8ebf;gradientColor=#7ea6e0;gradientDirection=north;strokeWidth=2;shape=mxgraph.networks.web_server;" parent="-JDEevKfmv0RGfHEk7cI-1" vertex="1">
          <mxGeometry x="88" y="10" width="50" height="77.5" as="geometry" />
        </mxCell>
        <mxCell id="DwUHdm88fEw4uy0n-BkT-65" value="" style="verticalAlign=top;verticalLabelPosition=bottom;labelPosition=center;align=center;html=1;outlineConnect=0;fillColor=#dae8fc;strokeColor=#6c8ebf;gradientColor=#7ea6e0;gradientDirection=north;strokeWidth=2;shape=mxgraph.networks.web_server;" parent="-JDEevKfmv0RGfHEk7cI-1" vertex="1">
          <mxGeometry x="153" y="10" width="50" height="77.5" as="geometry" />
        </mxCell>
        <mxCell id="DwUHdm88fEw4uy0n-BkT-66" value="" style="verticalAlign=top;verticalLabelPosition=bottom;labelPosition=center;align=center;html=1;outlineConnect=0;fillColor=#dae8fc;strokeColor=#6c8ebf;gradientColor=#7ea6e0;gradientDirection=north;strokeWidth=2;shape=mxgraph.networks.web_server;" parent="-JDEevKfmv0RGfHEk7cI-1" vertex="1">
          <mxGeometry x="217" y="10" width="50" height="77.5" as="geometry" />
        </mxCell>
        <mxCell id="-JDEevKfmv0RGfHEk7cI-9" style="edgeStyle=none;rounded=0;orthogonalLoop=1;jettySize=auto;html=1;startArrow=none;startFill=0;endArrow=classicThin;endFill=1;exitX=0.531;exitY=1.008;exitDx=0;exitDy=0;exitPerimeter=0;" edge="1" parent="DwUHdm88fEw4uy0n-BkT-85" source="-JDEevKfmv0RGfHEk7cI-3">
          <mxGeometry relative="1" as="geometry">
            <mxPoint x="470" y="487" as="sourcePoint" />
            <mxPoint x="468" y="710" as="targetPoint" />
          </mxGeometry>
        </mxCell>
        <mxCell id="-JDEevKfmv0RGfHEk7cI-10" value="Direction集群" style="text;html=1;strokeColor=none;fillColor=none;align=center;verticalAlign=middle;whiteSpace=wrap;rounded=0;" vertex="1" parent="DwUHdm88fEw4uy0n-BkT-85">
          <mxGeometry x="580" y="570" width="130" height="30" as="geometry" />
        </mxCell>
      </root>
    </mxGraphModel>
  </diagram>
</mxfile>
